<svg width="175" height="165" viewBox="0 0 175 165" fill="none" xmlns="http://www.w3.org/2000/svg">
<path d="M87.0402 25.917C71.9692 25.917 59.7519 39.3659 59.7519 55.9559C59.7519 67.4617 65.6284 77.4543 74.2576 82.4999L64.251 86.8725L37.6219 98.5171C35.0494 99.73 33.7655 101.787 33.7655 104.697V132.349C33.9771 135.806 36.1772 139.028 39.7441 139.083H134.48C138.553 138.749 140.613 135.656 140.653 132.349V104.697C140.653 101.787 139.369 99.73 136.796 98.5171L111.132 86.8725L100.466 82.1082C108.741 76.949 114.329 67.1724 114.329 55.9561C114.329 39.3659 102.111 25.917 87.0402 25.917ZM43.0242 36.4803C36.5385 36.7125 31.3985 39.3586 27.4934 43.5747C23.1738 48.651 21.068 54.6779 21.0273 60.6734C21.2925 69.5391 25.4998 77.9321 32.9898 82.3222L3.08627 95.4245C1.02813 96.1521 0 97.8498 0 100.518V122.71C0.160708 125.653 1.7815 128.127 4.82052 128.169H24.6953V104.697C25.0241 98.422 28.1496 93.3496 33.7655 90.8743L53.6349 81.962C55.1784 81.1129 56.6581 79.9589 58.073 78.5036C49.8807 66.5856 48.743 52.3111 54.0228 39.756C50.5889 37.7744 46.7297 36.5011 43.0242 36.4803ZM131.776 36.4803C127.535 36.564 123.615 38.0367 120.396 40.1163C125.531 52.7852 124.115 67.0685 116.534 78.1378C118.206 79.957 119.947 81.3522 121.748 82.3225L140.847 90.8743C146.665 93.883 149.665 99.0003 149.723 104.697V128.17H170.174C173.537 127.896 174.971 125.366 175 122.71V100.518C175 98.0925 173.972 96.395 171.914 95.4245L142.393 82.1395C150.048 76.8172 153.893 68.8405 153.967 60.6734C153.764 54.2093 151.669 48.2071 147.501 43.5747C143.146 39.1199 137.743 36.5275 131.776 36.4803Z" fill="#482E58"/>
</svg>
