<svg width="265" height="250" viewBox="0 0 265 250" fill="none" xmlns="http://www.w3.org/2000/svg">
<g clip-path="url(#clip0_156_363)">
<rect width="265" height="250" fill="url(#paint0_linear_156_363)"/>
<path d="M228.194 55.5557H169.306V69.4446H228.194V215.278H169.306V229.167H242.917V69.4446C242.917 65.761 241.366 62.2283 238.605 59.6236C235.844 57.019 232.099 55.5557 228.194 55.5557Z" fill="#37303C"/>
<path d="M146.339 20.8335H45.05C40.9112 20.8335 36.9418 22.3846 34.0152 25.1455C31.0886 27.9065 29.4445 31.6511 29.4445 35.5557V229.167H161.944V35.5557C161.944 31.6511 160.3 27.9065 157.374 25.1455C154.447 22.3846 150.478 20.8335 146.339 20.8335ZM147.222 215.278H125.139V194.445H66.25V215.278H44.1667V35.5557C44.1667 35.4463 44.1895 35.3379 44.2339 35.2368C44.2783 35.1357 44.3434 35.0438 44.4254 34.9665C44.5074 34.8891 44.6048 34.8277 44.712 34.7858C44.8191 34.7439 44.934 34.7224 45.05 34.7224H146.339C146.455 34.7224 146.57 34.7439 146.677 34.7858C146.784 34.8277 146.881 34.8891 146.964 34.9665C147.046 35.0438 147.111 35.1357 147.155 35.2368C147.199 35.3379 147.222 35.4463 147.222 35.5557V215.278Z" fill="#37303C"/>
<path d="M58.8889 55.5557H73.6111V69.4446H58.8889V55.5557Z" fill="#37303C"/>
<path d="M88.3333 55.5557H103.056V69.4446H88.3333V55.5557Z" fill="#37303C"/>
<path d="M117.778 55.5557H132.5V69.4446H117.778V55.5557Z" fill="#37303C"/>
<path d="M58.8889 90.2778H73.6111V104.167H58.8889V90.2778Z" fill="#37303C"/>
<path d="M88.3333 90.2778H103.056V104.167H88.3333V90.2778Z" fill="#37303C"/>
<path d="M117.778 90.2778H132.5V104.167H117.778V90.2778Z" fill="#37303C"/>
<path d="M58.8889 125H73.6111V138.889H58.8889V125Z" fill="#37303C"/>
<path d="M88.3333 125H103.056V138.889H88.3333V125Z" fill="#37303C"/>
<path d="M117.778 125H132.5V138.889H117.778V125Z" fill="#37303C"/>
<path d="M58.8889 159.722H73.6111V173.611H58.8889V159.722Z" fill="#37303C"/>
<path d="M88.3333 159.722H103.056V173.611H88.3333V159.722Z" fill="#37303C"/>
<path d="M117.778 159.722H132.5V173.611H117.778V159.722Z" fill="#37303C"/>
<path d="M169.306 90.2778H184.028V104.167H169.306V90.2778Z" fill="#37303C"/>
<path d="M198.75 90.2778H213.472V104.167H198.75V90.2778Z" fill="#37303C"/>
<path d="M169.306 125H184.028V138.889H169.306V125Z" fill="#37303C"/>
<path d="M198.75 125H213.472V138.889H198.75V125Z" fill="#37303C"/>
<path d="M169.306 159.722H184.028V173.611H169.306V159.722Z" fill="#37303C"/>
<path d="M198.75 159.722H213.472V173.611H198.75V159.722Z" fill="#37303C"/>
</g>
<defs>
<linearGradient id="paint0_linear_156_363" x1="132.5" y1="0" x2="132.5" y2="250" gradientUnits="userSpaceOnUse">
<stop stop-color="#180422"/>
<stop offset="1" stop-color="#110217" stop-opacity="0"/>
</linearGradient>
<clipPath id="clip0_156_363">
<rect width="265" height="250" fill="white"/>
</clipPath>
</defs>
</svg>
