<svg width="175" height="165" viewBox="0 0 175 165" fill="none" xmlns="http://www.w3.org/2000/svg">
<path d="M87.4188 112.829C70.5857 112.829 56.924 99.2287 56.924 82.4711C56.924 65.7136 70.5857 52.1133 87.4188 52.1133C104.252 52.1133 117.914 65.7136 117.914 82.4711C117.914 99.2287 104.252 112.829 87.4188 112.829ZM87.4188 64.2564C77.3352 64.2564 69.1219 72.4328 69.1219 82.4711C69.1219 92.5095 77.3352 100.686 87.4188 100.686C97.5025 100.686 105.716 92.5095 105.716 82.4711C105.716 72.4328 97.5025 64.2564 87.4188 64.2564Z" fill="#D3B5EA" fill-opacity="0.23"/>
<path d="M113.522 164.967C111.815 164.967 110.107 164.724 108.399 164.319C103.357 162.943 99.1287 159.786 96.4452 155.333L95.4693 153.714C90.6715 145.457 84.0846 145.457 79.2867 153.714L78.3922 155.252C75.7086 159.786 71.48 163.024 66.4382 164.319C61.3151 165.696 56.0293 164.967 51.5567 162.296L37.5697 154.281C32.6092 151.448 29.0311 146.833 27.4861 141.247C26.0223 135.662 26.7542 129.914 29.6004 124.976C31.9586 120.847 32.6092 117.123 31.2268 114.775C29.8443 112.428 26.3476 111.051 21.5497 111.051C9.67704 111.051 0 101.418 0 89.5985V75.3505C0 63.5312 9.67704 53.8977 21.5497 53.8977C26.3476 53.8977 29.8443 52.5214 31.2268 50.1738C32.6092 47.8261 32.04 44.1022 29.6004 39.9735C26.7542 35.0353 26.0223 29.2066 27.4861 23.7017C28.9498 18.1158 32.5279 13.5015 37.5697 10.6681L51.638 2.65357C60.8271 -2.77037 72.9438 0.386851 78.4735 9.6966L79.4494 11.3157C84.2472 19.573 90.8341 19.573 95.632 11.3157L96.5265 9.77755C102.056 0.386851 114.173 -2.77037 123.443 2.73453L137.43 10.749C142.391 13.5824 145.969 18.1968 147.514 23.7827C148.978 29.3685 148.246 35.1163 145.4 40.0545C143.041 44.1831 142.391 47.907 143.773 50.2547C145.156 52.6024 148.652 53.9786 153.45 53.9786C165.323 53.9786 175 63.6122 175 75.4315V89.6795C175 101.499 165.323 111.132 153.45 111.132C148.652 111.132 145.156 112.509 143.773 114.856C142.391 117.204 142.96 120.928 145.4 125.057C148.246 129.995 149.059 135.823 147.514 141.328C146.05 146.914 142.472 151.529 137.43 154.362L123.362 162.376C120.272 164.076 116.938 164.967 113.522 164.967ZM87.4187 135.014C94.6561 135.014 101.406 139.547 106.041 147.562L106.935 149.1C107.911 150.8 109.538 152.014 111.489 152.5C113.441 152.986 115.393 152.743 117.019 151.771L131.087 143.676C133.202 142.462 134.828 140.438 135.479 138.009C136.129 135.581 135.804 133.071 134.584 130.966C129.949 123.033 129.38 114.856 132.958 108.623C136.536 102.389 143.936 98.8273 153.206 98.8273C158.411 98.8273 162.558 94.6986 162.558 89.5176V75.2696C162.558 70.1695 158.411 65.9599 153.206 65.9599C143.936 65.9599 136.536 62.3979 132.958 56.1644C129.38 49.9309 129.949 41.7545 134.584 33.821C135.804 31.7162 136.129 29.2066 135.479 26.778C134.828 24.3493 133.283 22.4064 131.169 21.1112L117.1 13.0967C113.604 10.9919 108.968 12.2062 106.854 15.7682L105.96 17.3063C101.324 25.3208 94.5748 29.8542 87.3374 29.8542C80.0999 29.8542 73.3504 25.3208 68.7151 17.3063L67.8206 15.6872C65.7876 12.2871 61.2337 11.0728 57.737 13.0967L43.6687 21.1921C41.5544 22.4064 39.928 24.4303 39.2774 26.8589C38.6269 29.2875 38.9521 31.7971 40.1719 33.9019C44.8072 41.8355 45.3764 50.0119 41.7983 56.2453C38.2203 62.4788 30.8202 66.0408 21.5497 66.0408C16.3453 66.0408 12.198 70.1695 12.198 75.3505V89.5985C12.198 94.6986 16.3453 98.9083 21.5497 98.9083C30.8202 98.9083 38.2203 102.47 41.7983 108.704C45.3764 114.937 44.8072 123.114 40.1719 131.047C38.9521 133.152 38.6269 135.662 39.2774 138.09C39.928 140.519 41.473 142.462 43.5874 143.757L57.6557 151.771C59.3634 152.824 61.3964 153.067 63.2667 152.581C65.2184 152.095 66.8448 150.8 67.902 149.1L68.7965 147.562C73.4317 139.628 80.1812 135.014 87.4187 135.014Z" fill="#D3B5EA" fill-opacity="0.23"/>
</svg>
