<svg width="61" height="51" viewBox="0 0 61 51" fill="none" xmlns="http://www.w3.org/2000/svg">
<path d="M51.1826 4.20329C47.3825 2.24393 43.2681 0.821813 38.9823 0.000145366C38.9447 -0.00118385 38.9073 0.00661593 38.8728 0.0229964C38.8382 0.039377 38.8073 0.0639404 38.7823 0.0949538C38.268 1.13784 37.668 2.49675 37.2679 3.53964C32.7221 2.78117 28.0991 2.78117 23.5533 3.53964C23.1533 2.46515 22.5533 1.13784 22.0104 0.0949538C21.9818 0.0317486 21.8961 0.000145366 21.8104 0.000145366C17.5245 0.821813 13.4387 2.24393 9.61005 4.20329C9.58147 4.20329 9.5529 4.23489 9.52433 4.2665C1.75269 17.1288 -0.390228 29.6434 0.666943 42.0316C0.666943 42.0948 0.695516 42.158 0.75266 42.1896C5.89566 46.3612 10.8387 48.8894 15.7245 50.5643C15.8102 50.5959 15.8959 50.5643 15.9245 50.5011C17.0674 48.763 18.096 46.93 18.9817 45.0022C19.0389 44.8758 18.9817 44.7494 18.8674 44.7178C17.2388 44.0226 15.6959 43.2009 14.1816 42.2528C14.0673 42.1896 14.0673 42 14.153 41.9052C14.4673 41.6524 14.7816 41.3679 15.0959 41.1151C15.1531 41.0519 15.2388 41.0519 15.2959 41.0835C25.1248 46.0451 35.725 46.0451 45.4396 41.0835C45.4967 41.0519 45.5825 41.0519 45.6396 41.1151C45.9539 41.3996 46.2682 41.6524 46.5825 41.9368C46.6968 42.0316 46.6968 42.2212 46.5539 42.2844C45.0682 43.2641 43.4967 44.0542 41.8681 44.7494C41.7538 44.781 41.7252 44.939 41.7538 45.0338C42.6681 46.9616 43.6967 48.7946 44.811 50.5327C44.8967 50.5643 44.9824 50.5959 45.0682 50.5643C49.9826 48.8894 54.9256 46.3612 60.0686 42.1896C60.1257 42.158 60.1543 42.0948 60.1543 42.0316C61.4115 27.7156 58.0685 15.2958 51.2969 4.2665C51.2683 4.23489 51.2398 4.20329 51.1826 4.20329ZM20.4675 34.4786C17.5245 34.4786 15.0673 31.4763 15.0673 27.7788C15.0673 24.0813 17.4674 21.0791 20.4675 21.0791C23.4961 21.0791 25.8962 24.1129 25.8676 27.7788C25.8676 31.4763 23.4676 34.4786 20.4675 34.4786ZM40.3823 34.4786C37.4394 34.4786 34.9822 31.4763 34.9822 27.7788C34.9822 24.0813 37.3822 21.0791 40.3823 21.0791C43.411 21.0791 45.811 24.1129 45.7825 27.7788C45.7825 31.4763 43.411 34.4786 40.3823 34.4786Z" fill="#E0CECE"/>
</svg>
