<svg width="157" height="31" viewBox="0 0 157 31" fill="none" xmlns="http://www.w3.org/2000/svg">
<path d="M61.0653 16.4808H57.4602C57.4347 16.1825 57.3665 15.9119 57.2557 15.669C57.1491 15.4261 57 15.2173 56.8082 15.0426C56.6207 14.8636 56.3928 14.7272 56.1243 14.6335C55.8558 14.5355 55.5511 14.4865 55.2102 14.4865C54.6136 14.4865 54.1087 14.6313 53.6953 14.9211C53.2862 15.2109 52.9751 15.6264 52.7621 16.1676C52.5533 16.7088 52.4489 17.3586 52.4489 18.1171C52.4489 18.9183 52.5554 19.5894 52.7685 20.1306C52.9858 20.6676 53.299 21.0724 53.7081 21.3451C54.1172 21.6136 54.6094 21.7478 55.1847 21.7478C55.5128 21.7478 55.8068 21.7073 56.0668 21.6264C56.3267 21.5411 56.5526 21.4197 56.7443 21.262C56.9361 21.1044 57.0916 20.9147 57.2109 20.6931C57.3345 20.4673 57.4176 20.2137 57.4602 19.9325L61.0653 19.9581C61.0227 20.512 60.8672 21.0767 60.5987 21.6519C60.3303 22.223 59.9489 22.7514 59.4545 23.2372C58.9645 23.7187 58.3572 24.1065 57.6328 24.4005C56.9084 24.6946 56.0668 24.8416 55.108 24.8416C53.9062 24.8416 52.8281 24.5838 51.8736 24.0681C50.9233 23.5525 50.1712 22.794 49.6172 21.7926C49.0675 20.7911 48.7926 19.566 48.7926 18.1171C48.7926 16.6598 49.0739 15.4325 49.6364 14.4353C50.1989 13.4339 50.9574 12.6775 51.9119 12.1661C52.8665 11.6505 53.9318 11.3927 55.108 11.3927C55.9347 11.3927 56.6953 11.5056 57.3899 11.7315C58.0845 11.9573 58.6939 12.2876 59.218 12.7223C59.7422 13.1527 60.1641 13.6832 60.4837 14.3139C60.8033 14.9446 60.9972 15.6669 61.0653 16.4808ZM67.4334 24.8416C66.3851 24.8416 65.4817 24.6413 64.7232 24.2407C63.9689 23.8359 63.3873 23.2563 62.9782 22.5021C62.5733 21.7436 62.3709 20.8359 62.3709 19.7791C62.3709 18.7649 62.5755 17.8785 62.9846 17.12C63.3936 16.3615 63.9711 15.7713 64.7168 15.3494C65.4625 14.9275 66.3425 14.7166 67.3567 14.7166C68.0982 14.7166 68.7694 14.8316 69.3702 15.0617C69.9711 15.2919 70.4846 15.6264 70.9107 16.0653C71.3368 16.5 71.665 17.0284 71.8951 17.6505C72.1252 18.2727 72.2402 18.9737 72.2402 19.7535V20.5717H63.4703V18.6285H68.9931C68.9888 18.3473 68.9164 18.1001 68.7757 17.887C68.6394 17.6697 68.454 17.5014 68.2196 17.3821C67.9895 17.2585 67.7275 17.1967 67.4334 17.1967C67.1479 17.1967 66.8858 17.2585 66.6472 17.3821C66.4086 17.5014 66.2168 17.6676 66.0719 17.8806C65.9313 18.0937 65.8567 18.343 65.8482 18.6285V20.7251C65.8482 21.0404 65.9142 21.3217 66.0463 21.5688C66.1784 21.816 66.3681 22.0099 66.6152 22.1505C66.8624 22.2911 67.1607 22.3615 67.5101 22.3615C67.753 22.3615 67.9746 22.3274 68.1749 22.2592C68.3794 22.191 68.5542 22.093 68.699 21.9652C68.8439 21.8331 68.9505 21.6754 69.0186 21.4921H72.2402C72.1294 22.174 71.8674 22.7663 71.454 23.2691C71.0407 23.7677 70.4931 24.1555 69.8113 24.4325C69.1337 24.7052 68.3411 24.8416 67.4334 24.8416ZM73.68 24.6626V14.8444H77.1062V16.7109H77.2085C77.3874 16.0206 77.6708 15.5156 78.0586 15.196C78.4506 14.8764 78.9087 14.7166 79.4329 14.7166C79.5863 14.7166 79.7376 14.7294 79.8867 14.7549C80.0401 14.7762 80.1871 14.8082 80.3278 14.8508V17.8615C80.1531 17.8018 79.9379 17.7571 79.6822 17.7272C79.4265 17.6974 79.207 17.6825 79.0238 17.6825C78.6786 17.6825 78.3675 17.7613 78.0906 17.919C77.8178 18.0724 77.6026 18.2897 77.445 18.571C77.2873 18.848 77.2085 19.174 77.2085 19.549V24.6626H73.68ZM87.7441 14.8444V17.4012H81.2754V14.8444H87.7441ZM82.5282 12.4921H86.0566V21.5049C86.0566 21.6413 86.0801 21.7563 86.127 21.8501C86.1738 21.9396 86.2463 22.0078 86.3443 22.0546C86.4423 22.0973 86.568 22.1186 86.7214 22.1186C86.8279 22.1186 86.9515 22.1058 87.0922 22.0802C87.237 22.0546 87.3436 22.0333 87.4118 22.0163L87.9231 24.4964C87.7654 24.5433 87.5396 24.6008 87.2456 24.669C86.9558 24.7372 86.6106 24.7819 86.2101 24.8032C85.4004 24.8458 84.7207 24.7627 84.171 24.5539C83.6213 24.3409 83.2079 24.0063 82.9309 23.5504C82.6539 23.0944 82.5197 22.5234 82.5282 21.8373V12.4921ZM89.1839 24.6626V14.8444H92.7124V24.6626H89.1839ZM90.9482 13.8217C90.4709 13.8217 90.0618 13.664 89.7209 13.3487C89.38 13.0333 89.2095 12.6541 89.2095 12.2109C89.2095 11.7677 89.38 11.3884 89.7209 11.0731C90.0618 10.7578 90.4709 10.6001 90.9482 10.6001C91.4297 10.6001 91.8388 10.7578 92.1754 11.0731C92.5163 11.3884 92.6868 11.7677 92.6868 12.2109C92.6868 12.6541 92.5163 13.0333 92.1754 13.3487C91.8388 13.664 91.4297 13.8217 90.9482 13.8217ZM94.459 24.6626V11.5717H98.013V21.799H103.306V24.6626H94.459ZM109.498 24.8416C108.45 24.8416 107.546 24.6413 106.788 24.2407C106.033 23.8359 105.452 23.2563 105.043 22.5021C104.638 21.7436 104.435 20.8359 104.435 19.7791C104.435 18.7649 104.64 17.8785 105.049 17.12C105.458 16.3615 106.036 15.7713 106.781 15.3494C107.527 14.9275 108.407 14.7166 109.421 14.7166C110.163 14.7166 110.834 14.8316 111.435 15.0617C112.036 15.2919 112.549 15.6264 112.975 16.0653C113.401 16.5 113.729 17.0284 113.96 17.6505C114.19 18.2727 114.305 18.9737 114.305 19.7535V20.5717H105.535V18.6285H111.058C111.053 18.3473 110.981 18.1001 110.84 17.887C110.704 17.6697 110.518 17.5014 110.284 17.3821C110.054 17.2585 109.792 17.1967 109.498 17.1967C109.212 17.1967 108.95 17.2585 108.712 17.3821C108.473 17.5014 108.281 17.6676 108.136 17.8806C107.996 18.0937 107.921 18.343 107.913 18.6285V20.7251C107.913 21.0404 107.979 21.3217 108.111 21.5688C108.243 21.816 108.433 22.0099 108.68 22.1505C108.927 22.2911 109.225 22.3615 109.575 22.3615C109.817 22.3615 110.039 22.3274 110.239 22.2592C110.444 22.191 110.619 22.093 110.763 21.9652C110.908 21.8331 111.015 21.6754 111.083 21.4921H114.305C114.194 22.174 113.932 22.7663 113.518 23.2691C113.105 23.7677 112.558 24.1555 111.876 24.4325C111.198 24.7052 110.406 24.8416 109.498 24.8416ZM119.298 24.7904C118.6 24.7904 117.956 24.6072 117.368 24.2407C116.784 23.8742 116.316 23.3181 115.962 22.5724C115.612 21.8267 115.438 20.887 115.438 19.7535C115.438 18.5688 115.621 17.6058 115.987 16.8643C116.358 16.1228 116.835 15.5795 117.419 15.2343C118.007 14.8892 118.625 14.7166 119.273 14.7166C119.759 14.7166 120.185 14.8018 120.551 14.9723C120.918 15.1384 121.225 15.3622 121.472 15.6434C121.719 15.9204 121.906 16.2251 122.034 16.5575H122.085V11.5717H125.614V24.6626H122.111V23.0518H122.034C121.898 23.3842 121.702 23.6825 121.446 23.9467C121.195 24.2066 120.888 24.4133 120.526 24.5667C120.168 24.7159 119.759 24.7904 119.298 24.7904ZM120.602 22.0802C120.926 22.0802 121.203 21.9865 121.433 21.799C121.668 21.6072 121.847 21.3387 121.97 20.9936C122.098 20.6441 122.162 20.2308 122.162 19.7535C122.162 19.2677 122.098 18.8522 121.97 18.5071C121.847 18.1576 121.668 17.8913 121.433 17.7081C121.203 17.5206 120.926 17.4268 120.602 17.4268C120.279 17.4268 120.002 17.5206 119.771 17.7081C119.546 17.8913 119.371 18.1576 119.247 18.5071C119.128 18.8522 119.068 19.2677 119.068 19.7535C119.068 20.2393 119.128 20.6569 119.247 21.0063C119.371 21.3515 119.546 21.6179 119.771 21.8054C120.002 21.9886 120.279 22.0802 120.602 22.0802ZM132.076 28.549C131.092 28.549 130.248 28.4083 129.545 28.1271C128.846 27.8501 128.303 27.4666 127.915 26.9765C127.531 26.4907 127.316 25.9325 127.269 25.3018H130.67C130.704 25.5106 130.789 25.6789 130.926 25.8068C131.062 25.9346 131.237 26.0262 131.45 26.0816C131.667 26.1413 131.91 26.1711 132.178 26.1711C132.634 26.1711 133.012 26.0603 133.31 25.8387C133.612 25.6171 133.764 25.2166 133.764 24.637V22.9751H133.661C133.534 23.3075 133.338 23.5909 133.073 23.8252C132.809 24.0554 132.492 24.2322 132.121 24.3558C131.75 24.4751 131.343 24.5348 130.9 24.5348C130.201 24.5348 129.558 24.3728 128.97 24.049C128.386 23.7251 127.917 23.2116 127.563 22.5085C127.214 21.8054 127.039 20.887 127.039 19.7535C127.039 18.5688 127.222 17.6058 127.589 16.8643C127.96 16.1228 128.437 15.5795 129.021 15.2343C129.609 14.8892 130.227 14.7166 130.874 14.7166C131.36 14.7166 131.786 14.8018 132.153 14.9723C132.519 15.1384 132.826 15.3622 133.073 15.6434C133.32 15.9204 133.508 16.2251 133.636 16.5575H133.713V14.8444H137.241V24.637C137.241 25.468 137.026 26.1733 136.595 26.7528C136.169 27.3366 135.568 27.7819 134.793 28.0887C134.017 28.3956 133.112 28.549 132.076 28.549ZM132.204 22.0291C132.528 22.0291 132.805 21.9396 133.035 21.7606C133.269 21.5774 133.448 21.3174 133.572 20.9808C133.7 20.6399 133.764 20.2308 133.764 19.7535C133.764 19.2677 133.7 18.8522 133.572 18.5071C133.448 18.1576 133.269 17.8913 133.035 17.7081C132.805 17.5206 132.528 17.4268 132.204 17.4268C131.88 17.4268 131.603 17.5206 131.373 17.7081C131.147 17.8913 130.972 18.1576 130.849 18.5071C130.73 18.8522 130.67 19.2677 130.67 19.7535C130.67 20.2393 130.73 20.6527 130.849 20.9936C130.972 21.3302 131.147 21.588 131.373 21.767C131.603 21.9417 131.88 22.0291 132.204 22.0291ZM143.74 24.8416C142.692 24.8416 141.788 24.6413 141.03 24.2407C140.276 23.8359 139.694 23.2563 139.285 22.5021C138.88 21.7436 138.678 20.8359 138.678 19.7791C138.678 18.7649 138.882 17.8785 139.291 17.12C139.7 16.3615 140.278 15.7713 141.023 15.3494C141.769 14.9275 142.649 14.7166 143.663 14.7166C144.405 14.7166 145.076 14.8316 145.677 15.0617C146.278 15.2919 146.791 15.6264 147.217 16.0653C147.643 16.5 147.972 17.0284 148.202 17.6505C148.432 18.2727 148.547 18.9737 148.547 19.7535V20.5717H139.777V18.6285H145.3C145.295 18.3473 145.223 18.1001 145.082 17.887C144.946 17.6697 144.761 17.5014 144.526 17.3821C144.296 17.2585 144.034 17.1967 143.74 17.1967C143.455 17.1967 143.192 17.2585 142.954 17.3821C142.715 17.5014 142.523 17.6676 142.379 17.8806C142.238 18.0937 142.163 18.343 142.155 18.6285V20.7251C142.155 21.0404 142.221 21.3217 142.353 21.5688C142.485 21.816 142.675 22.0099 142.922 22.1505C143.169 22.2911 143.467 22.3615 143.817 22.3615C144.06 22.3615 144.281 22.3274 144.482 22.2592C144.686 22.191 144.861 22.093 145.006 21.9652C145.151 21.8331 145.257 21.6754 145.325 21.4921H148.547C148.436 22.174 148.174 22.7663 147.761 23.2691C147.347 23.7677 146.8 24.1555 146.118 24.4325C145.44 24.7052 144.648 24.8416 143.74 24.8416ZM149.987 24.6626V14.8444H153.413V16.7109H153.515C153.694 16.0206 153.977 15.5156 154.365 15.196C154.757 14.8764 155.215 14.7166 155.74 14.7166C155.893 14.7166 156.044 14.7294 156.193 14.7549C156.347 14.7762 156.494 14.8082 156.634 14.8508V17.8615C156.46 17.8018 156.244 17.7571 155.989 17.7272C155.733 17.6974 155.514 17.6825 155.33 17.6825C154.985 17.6825 154.674 17.7613 154.397 17.919C154.124 18.0724 153.909 18.2897 153.752 18.571C153.594 18.848 153.515 19.174 153.515 19.549V24.6626H149.987Z" fill="url(#paint0_linear_404_2560)"/>
<path d="M20.9999 19.7192V22.6387C20.9999 23.2454 20.5727 23.803 19.8861 24.091L13.4536 26.7962" stroke="#A755F1" stroke-miterlimit="10"/>
<path d="M21.136 19.7192V22.4922C21.136 23.1888 21.6264 23.8288 22.4143 24.1611L28.6807 26.7975" stroke="#A755F1" stroke-miterlimit="10"/>
<path d="M22.4203 8.36475V11.3322C22.4203 11.9426 21.7844 12.4374 20.9997 12.4374C20.215 12.4374 19.579 11.9426 19.579 11.3322V8.36475L12.7794 11.4183V18.8018L20.9997 22.4941L29.2199 18.8018V11.4183L22.4203 8.36475Z" fill="#3E2752"/>
<path d="M20.9997 22.4953L12.7794 18.8029V11.4194L20.9997 14.4976V22.4953Z" fill="#7B3CB4"/>
<path d="M20.9997 14.4975L12.7794 11.4193L20.9997 7.71338L29.2199 11.4193L20.9997 14.4975Z" fill="#3B0466"/>
<path d="M15.6703 16.7316C15.6339 17.1846 15.9709 17.6523 16.4249 17.7766C16.879 17.8997 17.2761 17.6326 17.314 17.1784C17.3504 16.7255 17.0134 16.2578 16.5594 16.1335C16.1054 16.0104 15.7067 16.2775 15.6703 16.7316Z" fill="#3E2752"/>
<path d="M16.137 16.8582C16.1212 17.0539 16.2668 17.257 16.4629 17.3099C16.6591 17.3628 16.8316 17.2471 16.8474 17.0514C16.8632 16.8557 16.7176 16.6527 16.5215 16.5997C16.3253 16.5468 16.1529 16.6625 16.137 16.8582Z" fill="#C9DAEF"/>
<path d="M25.3314 16.9564L32.4458 13.925C32.9267 13.7195 33.5073 13.7146 33.9946 13.9103L36.9372 15.0943" stroke="#A755F1" stroke-miterlimit="10"/>
<path d="M15.9771 16.8961L9.00348 13.925C8.52254 13.7195 7.94194 13.7146 7.45467 13.9103L4.51208 15.0943" stroke="#3E2752" stroke-miterlimit="10"/>
<path d="M26.2043 16.814C26.1679 17.2842 25.7835 17.731 25.3468 17.8097C24.9102 17.8885 24.5843 17.571 24.6223 17.1008C24.6587 16.6307 25.0431 16.1839 25.4797 16.1051C25.9164 16.0251 26.2407 16.3426 26.2043 16.814Z" fill="#A755F1"/>
<path d="M25.7551 16.8958C25.7393 17.0988 25.5732 17.2921 25.3849 17.3265C25.1966 17.361 25.0558 17.2232 25.0716 17.0201C25.0875 16.817 25.2536 16.6238 25.4418 16.5893C25.6301 16.5548 25.7709 16.6915 25.7551 16.8958Z" fill="#C9DAEF"/>
<path d="M13.455 4.02734V6.91476C13.455 7.54123 13.8964 8.11724 14.6052 8.41509L20.9997 11.1056" stroke="#A755F1" stroke-miterlimit="10"/>
<path d="M28.6823 4.02734V6.91476C28.6823 7.54123 28.2409 8.11724 27.5322 8.41509L21.136 11.1056" stroke="#A755F1" stroke-miterlimit="10"/>
<path d="M28.8182 4.20013L23.5928 1.85303" stroke="#A755F1" stroke-miterlimit="10"/>
<path d="M28.4636 6.62132L23.9517 4.93146L28.4636 2.89697L32.9756 4.93146L28.4636 6.62132Z" fill="#A755F1"/>
<path d="M28.4636 5.88988L23.9517 4.20001L28.4636 2.16553L32.9756 4.20001L28.4636 5.88988Z" fill="#34085A"/>
<path d="M28.4641 6.62189V5.88957L32.9761 4.19971V4.93202L28.4641 6.62189Z" fill="#3E2752"/>
<path d="M23.9517 4.19971V4.93202L28.4636 6.62189V5.88957L23.9517 4.19971Z" fill="#A755F1"/>
<path d="M37.488 15.1328V9.257C37.488 8.53699 36.9944 7.87114 36.1923 7.51175L28.8185 4.19971" stroke="#A755F1" stroke-miterlimit="10"/>
<path d="M37.4882 17.727L32.9763 16.0372L37.4882 14.0039L42.0002 16.0372L37.4882 17.727Z" fill="#A755F1"/>
<path d="M37.4882 16.9958L32.9763 15.306L37.4882 13.2715L42.0002 15.306L37.4882 16.9958Z" fill="#34085A"/>
<path d="M37.488 17.7264V16.9941L41.9999 15.3042V16.0365L37.488 17.7264Z" fill="#3E2752"/>
<path d="M32.9763 15.3042V16.0365L37.4882 17.7264V16.9941L32.9763 15.3042Z" fill="#A755F1"/>
<path d="M28.9453 26.743L36.1926 23.4876C36.9947 23.1282 37.4883 22.4624 37.4883 21.7424V15.1343" stroke="#A755F1" stroke-miterlimit="10"/>
<path d="M28.4636 29.3352L23.9517 27.6453L28.4636 25.6108L32.9756 27.6453L28.4636 29.3352Z" fill="#A755F1"/>
<path d="M28.4636 28.6011L23.9517 26.9112L28.4636 24.8779L32.9756 26.9112L28.4636 28.6011Z" fill="#34085A"/>
<path d="M28.4641 29.3345V28.601L32.9761 26.9111V27.6447L28.4641 29.3345Z" fill="#3E2752"/>
<path d="M23.9517 26.9111V27.6447L28.4636 29.3345V28.601L23.9517 26.9111Z" fill="#A755F1"/>
<path d="M13.0551 26.7437L19.7044 29.7308C20.5065 30.0902 21.4937 30.0902 22.2942 29.7308L28.9435 26.7437" stroke="#A755F1" stroke-miterlimit="10"/>
<path d="M13.4553 29.3352L8.94177 27.6453L13.4553 25.6108L17.9673 27.6453L13.4553 29.3352Z" fill="#A755F1"/>
<path d="M13.4553 28.6011L8.94177 26.9112L13.4553 24.8779L17.9673 26.9112L13.4553 28.6011Z" fill="#34085A"/>
<path d="M13.455 29.3345V28.601L17.967 26.9111V27.6447L13.455 29.3345Z" fill="#3E2752"/>
<path d="M8.94177 26.9111V27.6447L13.4553 29.3345V28.601L8.94177 26.9111Z" fill="#A755F1"/>
<path d="M4.51208 15.1328V21.7409C4.51208 22.4609 5.00568 23.1268 5.80777 23.4861L13.0551 26.7416" stroke="#A755F1" stroke-miterlimit="10"/>
<path d="M13.4553 6.62132L8.94177 4.93146L13.4553 2.89697L17.9673 4.93146L13.4553 6.62132Z" fill="#A755F1"/>
<path d="M8.94177 4.19971V4.93202L13.4553 6.62189V5.88957L8.94177 4.19971Z" fill="#A755F1"/>
<path d="M4.51196 17.727L0 16.0372L4.51196 14.0039L9.02393 16.0372L4.51196 17.727Z" fill="#A755F1"/>
<path d="M4.51196 16.9958L0 15.306L4.51196 13.2715L9.02393 15.306L4.51196 16.9958Z" fill="#34085A"/>
<path d="M4.51208 17.7264V16.9941L9.02405 15.3042V16.0365L4.51208 17.7264Z" fill="#3E2752"/>
<path d="M0 15.3042V16.0365L4.51196 17.7264V16.9941L0 15.3042Z" fill="#A755F1"/>
<path d="M13.4553 4.07666L5.80777 7.51178C5.00568 7.8724 4.51208 8.53702 4.51208 9.25703V15.1328" stroke="#A755F1" stroke-miterlimit="10"/>
<path d="M5.34102 15.1322C5.34102 15.4879 4.96924 15.7772 4.51203 15.7772C4.05482 15.7772 3.68304 15.4879 3.68304 15.1322C3.68304 14.7765 4.05482 14.4873 4.51203 14.4873C4.96924 14.4873 5.34102 14.7765 5.34102 15.1322Z" fill="#A755F1"/>
<path d="M14.2525 26.7973C14.2525 27.153 13.8807 27.4422 13.4235 27.4422C12.9663 27.4422 12.5945 27.153 12.5945 26.7973C12.5945 26.4416 12.9663 26.1523 13.4235 26.1523C13.8807 26.1523 14.2525 26.4403 14.2525 26.7973Z" fill="#A755F1"/>
<path d="M4.51159 15.4123C4.70993 15.4123 4.87071 15.2872 4.87071 15.1329C4.87071 14.9786 4.70993 14.8535 4.51159 14.8535C4.31325 14.8535 4.15247 14.9786 4.15247 15.1329C4.15247 15.2872 4.31325 15.4123 4.51159 15.4123Z" fill="#7E6F8C"/>
<path d="M29.3565 26.828C29.3565 27.1837 28.9847 27.473 28.5275 27.473C28.0703 27.473 27.6985 27.1837 27.6985 26.828C27.6985 26.4723 28.0703 26.1831 28.5275 26.1831C28.9847 26.1831 29.3565 26.4711 29.3565 26.828Z" fill="#A755F1"/>
<path d="M28.5274 27.1076C28.7257 27.1076 28.8865 26.9825 28.8865 26.8282C28.8865 26.6739 28.7257 26.5488 28.5274 26.5488C28.3291 26.5488 28.1683 26.6739 28.1683 26.8282C28.1683 26.9825 28.3291 27.1076 28.5274 27.1076Z" fill="#7E6F8C"/>
<path d="M38.3169 15.3051C38.3169 15.6608 37.9451 15.95 37.4879 15.95C37.0307 15.95 36.6589 15.6608 36.6589 15.3051C36.6589 14.9494 37.0307 14.6602 37.4879 14.6602C37.9451 14.6602 38.3169 14.9494 38.3169 15.3051Z" fill="#A755F1"/>
<path d="M37.4882 15.5842C37.6865 15.5842 37.8473 15.4591 37.8473 15.3048C37.8473 15.1505 37.6865 15.0254 37.4882 15.0254C37.2899 15.0254 37.1291 15.1505 37.1291 15.3048C37.1291 15.4591 37.2899 15.5842 37.4882 15.5842Z" fill="#7E6F8C"/>
<path d="M29.4343 4.11515C29.4343 4.47084 29.0626 4.76008 28.6054 4.76008C28.1481 4.76008 27.7764 4.47084 27.7764 4.11515C27.7764 3.75945 28.1481 3.47021 28.6054 3.47021C29.0641 3.47021 29.4343 3.75945 29.4343 4.11515Z" fill="#A755F1"/>
<path d="M28.6049 4.39471C28.8032 4.39471 28.964 4.26963 28.964 4.11533C28.964 3.96102 28.8032 3.83594 28.6049 3.83594C28.4065 3.83594 28.2457 3.96102 28.2457 4.11533C28.2457 4.26963 28.4065 4.39471 28.6049 4.39471Z" fill="#7E6F8C"/>
<path d="M13.781 26.7965C13.781 26.9503 13.6212 27.0759 13.4219 27.0759C13.2241 27.0759 13.0627 26.9516 13.0627 26.7965C13.0627 26.6426 13.2225 26.5171 13.4219 26.5171C13.6212 26.5171 13.781 26.6414 13.781 26.7965Z" fill="#7E6F8C"/>
<path d="M13.4553 5.88988L8.94177 4.20001L13.4553 2.16553L17.9673 4.20001L13.4553 5.88988Z" fill="#34085A"/>
<path d="M13.455 6.62189V5.88957L17.967 4.19971V4.93202L13.455 6.62189Z" fill="#3E2752"/>
<path d="M23.5927 1.85263L22.2954 1.27046C21.4933 0.909845 20.5061 0.909845 19.7056 1.27046L13.455 4.07788" stroke="#A755F1" stroke-miterlimit="10"/>
<path d="M14.2824 4.02726C14.2824 4.38295 13.9106 4.67219 13.4534 4.67219C12.9962 4.67219 12.6245 4.38295 12.6245 4.02726C12.6245 3.67156 12.9962 3.38232 13.4534 3.38232C13.9106 3.38232 14.2824 3.67156 14.2824 4.02726Z" fill="#A755F1"/>
<path d="M13.8133 4.02695C13.8133 4.1808 13.6535 4.30633 13.4542 4.30633C13.2564 4.30633 13.095 4.18203 13.095 4.02695C13.095 3.8731 13.2548 3.74756 13.4542 3.74756C13.6535 3.74756 13.8133 3.8731 13.8133 4.02695Z" fill="#7E6F8C"/>
<path d="M21.8289 11.1059C21.8289 11.4616 21.4572 11.7508 20.9999 11.7508C20.5427 11.7508 20.171 11.4616 20.171 11.1059C20.171 10.7502 20.5427 10.4609 20.9999 10.4609C21.4572 10.4609 21.8289 10.7489 21.8289 11.1059Z" fill="#A755F1"/>
<path d="M20.9999 11.3849C21.1982 11.3849 21.359 11.2599 21.359 11.1056C21.359 10.9513 21.1982 10.8262 20.9999 10.8262C20.8015 10.8262 20.6407 10.9513 20.6407 11.1056C20.6407 11.2599 20.8015 11.3849 20.9999 11.3849Z" fill="#7E6F8C"/>
<defs>
<linearGradient id="paint0_linear_404_2560" x1="157" y1="20.9214" x2="48" y2="20.9214" gradientUnits="userSpaceOnUse">
<stop stop-color="#F9F3FC"/>
<stop offset="0.53125" stop-color="#AF99C0"/>
<stop offset="1" stop-color="#EFEAF4"/>
</linearGradient>
</defs>
</svg>
