<svg width="24" height="29" viewBox="0 0 24 29" fill="none" xmlns="http://www.w3.org/2000/svg">
<path d="M6.62 13.0379C8.06 16.4575 10.38 19.2487 13.21 21.0008L15.41 18.3425C15.68 18.0163 16.08 17.9075 16.43 18.0525C17.55 18.4996 18.76 18.7413 20 18.7413C20.55 18.7413 21 19.285 21 19.9496V24.1667C21 24.8313 20.55 25.375 20 25.375C10.61 25.375 3 16.1796 3 4.83333C3 4.16875 3.45 3.625 4 3.625H7.5C8.05 3.625 8.5 4.16875 8.5 4.83333C8.5 6.34375 8.7 7.79375 9.07 9.14708C9.18 9.57 9.1 10.0413 8.82 10.3796L6.62 13.0379Z" fill="#E0CECE"/>
</svg>
