<svg width="265" height="250" viewBox="0 0 265 250" fill="none" xmlns="http://www.w3.org/2000/svg">
<rect width="265" height="250" fill="#110217"/>
<path d="M247.216 18.6818C247.121 18.25 246.898 17.8525 246.573 17.536C246.248 17.2195 245.833 16.997 245.379 16.8947C215.064 9.90255 145.02 34.8195 107.071 70.6057C100.303 76.9394 94.1324 83.8177 88.63 91.1623C76.9276 90.1857 65.2251 91.0012 55.2514 95.1027C27.1107 106.787 18.9174 137.276 16.6349 150.391C16.5054 151.109 16.5543 151.845 16.7776 152.542C17.0009 153.239 17.3925 153.878 17.9218 154.408C18.451 154.938 19.1034 155.345 19.8276 155.597C20.5518 155.849 21.3281 155.939 22.0953 155.86L67.2851 151.157C67.3174 154.372 67.5229 157.582 67.901 160.777C68.1284 162.995 69.1722 165.068 70.8512 166.636L88.3505 183.106C90.014 184.688 92.2107 185.672 94.5615 185.889C97.9287 186.244 101.313 186.438 104.701 186.47L99.7424 229.048C99.6597 229.772 99.7558 230.504 100.023 231.186C100.291 231.869 100.722 232.484 101.284 232.983C101.845 233.482 102.522 233.852 103.26 234.063C103.998 234.274 104.779 234.321 105.539 234.199C119.416 232.1 151.79 224.37 164.103 197.822C168.451 188.413 169.341 177.427 168.337 166.441C176.141 161.249 183.451 155.427 190.184 149.038C228.252 113.306 254.514 48.7014 247.216 18.6818ZM152.204 106.411C148.728 103.134 146.36 98.958 145.4 94.4112C144.44 89.8643 144.932 85.151 146.811 80.8675C148.691 76.584 151.876 72.9226 155.961 70.3466C160.047 67.7706 164.851 66.3956 169.766 66.3956C174.68 66.3956 179.484 67.7706 183.57 70.3466C187.656 72.9226 190.84 76.584 192.72 80.8675C194.6 85.151 195.091 89.8643 194.131 94.4112C193.171 98.958 190.803 103.134 187.327 106.411C185.022 108.589 182.285 110.317 179.271 111.495C176.258 112.674 173.028 113.281 169.766 113.281C166.503 113.281 163.273 112.674 160.26 111.495C157.247 110.317 154.509 108.589 152.204 106.411Z" fill="#37303C"/>
<path d="M87.1602 195.034C84.3238 197.715 79.7743 198.76 74.2983 199.653C61.9955 201.631 51.1315 191.602 53.3416 179.868C54.1853 175.42 56.68 169.185 58.2327 167.72C58.5721 167.406 58.798 166.999 58.8783 166.557C58.9587 166.115 58.8893 165.66 58.6802 165.257C58.471 164.855 58.1327 164.524 57.7133 164.313C57.2938 164.102 56.8146 164.021 56.3436 164.082C49.4637 164.876 43.0632 167.819 38.161 172.441C25.9928 183.931 24.8438 226.563 24.8438 226.563C24.8438 226.563 70.0594 225.479 82.2276 213.989C87.1429 209.368 90.266 203.321 91.0938 196.821C91.2853 194.78 88.6508 193.564 87.1602 195.034Z" fill="#37303C"/>
</svg>
