<svg width="179" height="173" viewBox="0 0 179 173" fill="none" xmlns="http://www.w3.org/2000/svg">
<g filter="url(#filter0_d_407_3470)">
<path d="M91.1915 0C75.7849 0 63.3482 11.6368 63.3482 26.0526V52.1053L41.0735 39.0789C34.6902 35.8664 27.2204 35.1071 20.2487 36.9619C13.2769 38.8167 7.35166 43.1398 3.72964 49.0142C0.107611 54.8886 -0.926219 61.8522 0.847433 68.4279C2.62108 75.0036 7.06269 80.6742 13.2301 84.2368C17.0904 86.3193 21.4281 87.5054 25.8794 87.6956C30.3307 87.8858 34.7658 87.0746 38.8129 85.3301C42.86 83.5855 46.4011 80.9584 49.1392 77.6691C51.8774 74.3798 53.7327 70.5242 54.5497 66.4255L63.3853 71.2018V130.254H81.9475V81.1887L119.165 101.336L128.335 86.3124L81.929 60.7808V50.6203C86.129 52.0181 90.6266 52.4505 95.0427 51.8812C99.4588 51.3118 103.664 49.7574 107.303 47.3489C110.943 44.9404 113.91 41.7484 115.955 38.0421C118 34.3358 119.063 30.2237 119.053 26.0526C119.053 11.6368 106.617 0 91.2101 0L91.1915 0ZM82.1888 26.0526C82.1888 23.7494 83.1667 21.5406 84.9072 19.912C86.6478 18.2834 89.0084 17.3684 91.47 17.3684C93.9315 17.3684 96.2921 18.2834 98.0327 19.912C99.7732 21.5406 100.751 23.7494 100.751 26.0526C100.751 28.3558 99.7732 30.5647 98.0327 32.1933C96.2921 33.8219 93.9315 34.7368 91.47 34.7368C89.0084 34.7368 86.6478 33.8219 84.9072 32.1933C83.1667 30.5647 82.1888 28.3558 82.1888 26.0526ZM17.221 60.7895C17.221 58.4863 18.1988 56.2774 19.9394 54.6488C21.6799 53.0202 24.0406 52.1053 26.5021 52.1053C28.9636 52.1053 31.3243 53.0202 33.0649 54.6488C34.8054 56.2774 35.7833 58.4863 35.7833 60.7895C35.7833 63.0927 34.8054 65.3015 33.0649 66.9301C31.3243 68.5587 28.9636 69.4737 26.5021 69.4737C24.0406 69.4737 21.6799 68.5587 19.9394 66.9301C18.1988 65.3015 17.221 63.0927 17.221 60.7895ZM156.438 165H137.876V147.632H156.438V78.1579H128.594V60.7895H156.438C166.647 60.7895 175 68.5618 175 78.1579V147.632C175 157.184 166.693 165 156.438 165ZM100.751 165H119.313V147.632H100.751V165ZM63.6266 147.632C63.6266 157.184 71.9332 165 82.1888 165V147.632H63.6266Z" fill="#482E58"/>
</g>
<defs>
<filter id="filter0_d_407_3470" x="-4" y="0" width="183" height="173" filterUnits="userSpaceOnUse" color-interpolation-filters="sRGB">
<feFlood flood-opacity="0" result="BackgroundImageFix"/>
<feColorMatrix in="SourceAlpha" type="matrix" values="0 0 0 0 0 0 0 0 0 0 0 0 0 0 0 0 0 0 127 0" result="hardAlpha"/>
<feOffset dy="4"/>
<feGaussianBlur stdDeviation="2"/>
<feComposite in2="hardAlpha" operator="out"/>
<feColorMatrix type="matrix" values="0 0 0 0 0 0 0 0 0 0 0 0 0 0 0 0 0 0 0.25 0"/>
<feBlend mode="normal" in2="BackgroundImageFix" result="effect1_dropShadow_407_3470"/>
<feBlend mode="normal" in="SourceGraphic" in2="effect1_dropShadow_407_3470" result="shape"/>
</filter>
</defs>
</svg>
