<svg width="265" height="250" viewBox="0 0 265 250" fill="none" xmlns="http://www.w3.org/2000/svg">
<path d="M232.979 130.208L248.438 144.896L176.335 213.542L138.021 177.083L153.479 162.396L176.335 184.062L232.979 130.208ZM121.458 41.6665C133.172 41.6665 144.406 46.0564 152.689 53.8704C160.972 61.6844 165.625 72.2825 165.625 83.3332C165.625 94.3839 160.972 104.982 152.689 112.796C144.406 120.61 133.172 125 121.458 125C109.745 125 98.5106 120.61 90.2278 112.796C81.9449 104.982 77.2917 94.3839 77.2917 83.3332C77.2917 72.2825 81.9449 61.6844 90.2278 53.8704C98.5106 46.0564 109.745 41.6665 121.458 41.6665ZM121.458 62.4998C115.601 62.4998 109.984 64.6948 105.843 68.6018C101.702 72.5088 99.375 77.8078 99.375 83.3332C99.375 88.8585 101.702 94.1576 105.843 98.0646C109.984 101.972 115.601 104.167 121.458 104.167C127.315 104.167 132.932 101.972 137.074 98.0646C141.215 94.1576 143.542 88.8585 143.542 83.3332C143.542 77.8078 141.215 72.5088 137.074 68.6018C132.932 64.6948 127.315 62.4998 121.458 62.4998ZM121.458 135.417C128.967 135.417 138.021 136.354 148.069 138.125L129.629 155.521L121.458 155.208C88.6646 155.208 54.1042 170.417 54.1042 177.083V188.542H122.563L143.542 208.333H33.125V177.083C33.125 149.375 91.9771 135.417 121.458 135.417Z" fill="#37303C"/>
</svg>
