<svg width="175" height="165" viewBox="0 0 175 165" fill="none" xmlns="http://www.w3.org/2000/svg">
<rect width="175" height="165" fill="#2D0E43"/>
<path d="M114.552 43.2437L75.9063 79.6812L60.448 65.1062C59.7943 64.3866 58.9899 63.802 58.0852 63.3894C57.1806 62.9767 56.1953 62.7448 55.1911 62.7083C54.1869 62.6717 53.1855 62.8312 52.2498 63.1769C51.3141 63.5225 50.4642 64.0468 49.7536 64.7168C49.043 65.3868 48.487 66.188 48.1204 67.0703C47.7538 67.9525 47.5846 68.8967 47.6234 69.8435C47.6622 70.7903 47.9081 71.7193 48.3458 72.5723C48.7835 73.4252 49.4034 74.1837 50.1667 74.8L70.8021 94.2562C72.1603 95.5264 73.9934 96.2424 75.9063 96.25C76.8659 96.2552 77.8172 96.0818 78.7056 95.7397C79.594 95.3975 80.402 94.8934 81.0834 94.2562L124.833 53.0062C125.517 52.3671 126.059 51.6067 126.429 50.769C126.8 49.9312 126.99 49.0326 126.99 48.125C126.99 47.2174 126.8 46.3188 126.429 45.481C126.059 44.6432 125.517 43.8829 124.833 43.2437C123.467 41.9633 121.619 41.2445 119.693 41.2445C117.766 41.2445 115.918 41.9633 114.552 43.2437ZM138.542 13.75H36.4584C30.6568 13.75 25.0928 15.923 20.9904 19.7909C16.8881 23.6589 14.5834 28.9049 14.5834 34.375V103.125C14.5834 108.595 16.8881 113.841 20.9904 117.709C25.0928 121.577 30.6568 123.75 36.4584 123.75H120.969L147.948 149.256C148.629 149.893 149.437 150.398 150.326 150.74C151.214 151.082 152.165 151.255 153.125 151.25C154.082 151.273 155.03 151.085 155.896 150.7C157.227 150.184 158.367 149.308 159.172 148.183C159.976 147.057 160.41 145.732 160.417 144.375V34.375C160.417 28.9049 158.112 23.6589 154.01 19.7909C149.907 15.923 144.343 13.75 138.542 13.75ZM145.833 127.806L129.135 111.994C128.454 111.357 127.646 110.852 126.758 110.51C125.869 110.168 124.918 109.995 123.958 110H36.4584C34.5245 110 32.6698 109.276 31.3024 107.986C29.9349 106.697 29.1667 104.948 29.1667 103.125V34.375C29.1667 32.5516 29.9349 30.803 31.3024 29.5136C32.6698 28.2243 34.5245 27.5 36.4584 27.5H138.542C140.476 27.5 142.33 28.2243 143.698 29.5136C145.065 30.803 145.833 32.5516 145.833 34.375V127.806Z" fill="#482E58"/>
</svg>
